SRRun01_grf
version=1
nRows=24
nColumns=19
inDegrees=no
endheader
time	ground_force_r_vx	ground_force_r_vy	ground_force_r_vz	ground_force_r_px	ground_force_r_py	ground_force_r_pz	ground_force_r_mx	ground_force_r_my	ground_force_r_mz	ground_force_l_vx	ground_force_l_vy	ground_force_l_vz	ground_force_l_px	ground_force_l_py	ground_force_l_pz	ground_force_l_mx	ground_force_l_my	ground_force_l_mz
    142.49700000	      0.00000000	      0.00000000	      0.00000000	      0.00000000	      0.00000000	      0.00000000	      0.00000000	      0.00000000	      0.00000000	   -166.50291478	    299.17934307	     36.51613675	      0.84902234	      0.00000000	     -0.32061037	      0.00000509	     -2.59657709	      0.00001186
    142.49800000	      0.00000000	      0.00000000	      0.00000000	      0.00000000	      0.00000000	      0.00000000	      0.00000000	      0.00000000	      0.00000000	   -189.11647054	    333.54926941	     46.96590695	      0.84996726	      0.00000000	     -0.31870164	      0.00000534	     -2.83582712	      0.00001383
    142.49900000	      0.00000000	      0.00000000	      0.00000000	      0.00000000	      0.00000000	      0.00000000	      0.00000000	      0.00000000	      0.00000000	   -211.59894245	    369.73131388	     58.11938394	      0.85050427	      0.00000000	     -0.31740161	      0.00000555	     -2.84442396	      0.00001589
    142.50000000	      0.00000000	      0.00000000	      0.00000000	      0.00000000	      0.00000000	      0.00000000	      0.00000000	      0.00000000	      0.00000000	   -233.15714895	    407.63242984	     69.67363892	      0.85068145	      0.00000000	     -0.31654526	      0.00000575	     -2.61295545	      0.00001801
    142.50100000	      0.00000000	      0.00000000	      0.00000000	      0.00000000	      0.00000000	      0.00000000	      0.00000000	      0.00000000	      0.00000000	   -252.80528607	    447.03109029	     81.27565770	      0.85058240	      0.00000000	     -0.31598479	      0.00000595	     -2.14449898	      0.00002015
    142.50200000	      0.00000000	      0.00000000	      0.00000000	      0.00000000	      0.00000000	      0.00000000	      0.00000000	      0.00000000	      0.00000000	   -269.42087107	    487.57372158	     92.54552535	      0.85030594	      0.00000000	     -0.31559799	      0.00000618	     -1.45659337	      0.00002226
    142.50300000	      0.00000000	      0.00000000	      0.00000000	      0.00000000	      0.00000000	      0.00000000	      0.00000000	      0.00000000	      0.00000000	   -281.82784643	    528.78431796	    103.10268123	      0.84994287	      0.00000000	     -0.31529134	      0.00000647	     -0.58257219	      0.00002432
    142.50400000	      0.00000000	      0.00000000	      0.00000000	      0.00000000	      0.00000000	      0.00000000	      0.00000000	      0.00000000	      0.00000000	   -288.90037188	    570.08882695	    112.59246626	      0.84955635	      0.00000000	     -0.31499937	      0.00000684	      0.42796628	      0.00002630
    142.50500000	      0.00000000	      0.00000000	      0.00000000	      0.00000000	      0.00000000	      0.00000000	      0.00000000	      0.00000000	      0.00000000	   -289.67774198	    610.85357519	    120.71010174	      0.84917101	      0.00000000	     -0.31468137	      0.00000732	      1.50963558	      0.00002817
    142.50600000	      0.00000000	      0.00000000	      0.00000000	      0.00000000	      0.00000000	      0.00000000	      0.00000000	      0.00000000	      0.00000000	   -283.47873299	    650.43444724	    127.21984491	      0.84877283	      0.00000000	     -0.31431693	      0.00000791	      2.58271181	      0.00002995
    142.50700000	      0.00000000	      0.00000000	      0.00000000	      0.00000000	      0.00000000	      0.00000000	      0.00000000	      0.00000000	      0.00000000	   -270.00283111	    688.23129588	    131.96814405	      0.84831858	      0.00000000	     -0.31390042	      0.00000861	      3.55567124	      0.00003161
    142.50800000	      0.00000000	      0.00000000	      0.00000000	      0.00000000	      0.00000000	      0.00000000	      0.00000000	      0.00000000	      0.00000000	   -249.40635813	    723.74066090	    134.89055448	      0.84775080	      0.00000000	     -0.31343513	      0.00000941	      4.32905970	      0.00003315
    142.50900000	      0.00000000	      0.00000000	      0.00000000	      0.00000000	      0.00000000	      0.00000000	      0.00000000	      0.00000000	      0.00000000	   -222.34343866	    756.59973982	    136.01251124	      0.84701337	      0.00000000	     -0.31292702	      0.00001029	      4.80090681	      0.00003457
    142.51000000	      0.00000000	      0.00000000	      0.00000000	      0.00000000	      0.00000000	      0.00000000	      0.00000000	      0.00000000	      0.00000000	   -189.96485289	    786.61578237	    135.44387441	      0.84606319	      0.00000000	     -0.31237935	      0.00001120	      4.87361808	      0.00003583
    142.51100000	      0.00000000	      0.00000000	      0.00000000	      0.00000000	      0.00000000	      0.00000000	      0.00000000	      0.00000000	      0.00000000	   -153.87173525	    813.77731030	    133.36707321	      0.84487601	      0.00000000	     -0.31178886	      0.00001211	      4.46191085	      0.00003693
    142.51200000	      0.00000000	      0.00000000	      0.00000000	      0.00000000	      0.00000000	      0.00000000	      0.00000000	      0.00000000	      0.00000000	   -116.02545068	    838.24615787	    130.01925269	      0.84344627	      0.00000000	     -0.31114474	      0.00001297	      3.50115542	      0.00003781
    142.51300000	      0.00000000	      0.00000000	      0.00000000	      0.00000000	      0.00000000	      0.00000000	      0.00000000	      0.00000000	      0.00000000	    -78.61946370	    860.33170845	    125.66999070	      0.84178264	      0.00000000	     -0.31043004	      0.00001373	      1.95550931	      0.00003846
    142.51400000	      0.00000000	      0.00000000	      0.00000000	      0.00000000	      0.00000000	      0.00000000	      0.00000000	      0.00000000	      0.00000000	    -43.92315006	    880.45071935	    120.59717272	      0.83990171	      0.00000000	     -0.30962518	      0.00001435	     -0.17464368	      0.00003886
    142.51500000	      0.00000000	      0.00000000	      0.00000000	      0.00000000	      0.00000000	      0.00000000	      0.00000000	      0.00000000	      0.00000000	    -14.11073502	    899.07782745	    115.06385864	      0.83782158	      0.00000000	     -0.30871228	      0.00001480	     -2.84640641	      0.00003899
    142.51600000	      0.00000000	      0.00000000	      0.00000000	      0.00000000	      0.00000000	      0.00000000	      0.00000000	      0.00000000	      0.00000000	      8.90952962	    916.69301647	    109.29844792	      0.83555737	      0.00000000	     -0.30767925	      0.00001507	     -5.96977746	      0.00003886
    142.51700000	      0.00000000	      0.00000000	      0.00000000	      0.00000000	      0.00000000	      0.00000000	      0.00000000	      0.00000000	      0.00000000	     23.65039002	    933.73261475	    103.47965418	      0.83311893	      0.00000000	     -0.30652290	      0.00001515	     -9.40538694	      0.00003852
    142.51800000	      0.00000000	      0.00000000	      0.00000000	      0.00000000	      0.00000000	      0.00000000	      0.00000000	      0.00000000	      0.00000000	     29.17027302	    950.54952682	     97.72720870	      0.83051100	      0.00000000	     -0.30525028	      0.00001504	    -12.96524015	      0.00003802
    142.51900000	      0.00000000	      0.00000000	      0.00000000	      0.00000000	      0.00000000	      0.00000000	      0.00000000	      0.00000000	      0.00000000	     25.15545232	    967.38652458	     92.09877029	      0.82773486	      0.00000000	     -0.30387822	      0.00001478	    -16.41716289	      0.00003743
    142.52000000	      0.00000000	      0.00000000	      0.00000000	      0.00000000	      0.00000000	      0.00000000	      0.00000000	      0.00000000	      0.00000000	     11.95111613	    984.36402294	     86.59287605	      0.82479091	      0.00000000	     -0.30243118	      0.00001439	    -19.49359653	      0.00003682
